<svg xmlns="http://www.w3.org/2000/svg" version="1.1" class="w-8 h-8" viewBox="0 0 500 500" xmlns:xlink="http://www.w3.org/1999/xlink" style="shape-rendering: geometricprecision; text-rendering: geometricprecision; fill-rule: evenodd; clip-rule: evenodd;"><g><path fill="#010000" d="M 235.5,19.5 C 320.908,17.1239 388.741,50.1239 439,118.5C 478.593,179.89 488.593,245.89 469,316.5C 442.489,393.011 390.822,444.011 314,469.5C 233.906,489.683 162.073,473.516 98.5,421C 32.9065,358.878 9.07313,283.378 27,194.5C 50.8145,109.021 104.981,53.1881 189.5,27C 204.834,23.6281 220.167,21.1281 235.5,19.5 Z M 249.5,75.5 C 249.831,167.571 249.497,259.571 248.5,351.5C 237.781,351.727 227.114,351.727 216.5,351.5C 220.835,348.005 225.335,344.672 230,341.5C 234.208,331.328 234.541,320.995 231,310.5C 224.685,295.875 219.518,280.875 215.5,265.5C 216.123,262.833 217.123,260.333 218.5,258C 226.881,257.207 230.048,252.707 228,244.5C 217.828,239.225 210.494,241.892 206,252.5C 203.874,261.583 204.208,270.583 207,279.5C 210.034,289.445 213.534,299.112 217.5,308.5C 218.331,315.131 218.664,321.798 218.5,328.5C 216.364,330.812 214.364,333.312 212.5,336C 208.801,336.334 205.301,336.501 202,336.5C 202.835,332.677 203.502,328.677 204,324.5C 204.667,319.167 204.667,313.833 204,308.5C 196.773,281.093 189.94,253.593 183.5,226C 183.858,223.968 184.692,222.134 186,220.5C 192.667,213.833 199.333,207.167 206,200.5C 205.745,182.153 204.912,163.819 203.5,145.5C 200.86,145.954 198.527,147.121 196.5,149C 192.863,153.479 188.696,157.313 184,160.5C 177.864,158.399 171.698,156.399 165.5,154.5C 159.432,156.301 153.432,158.301 147.5,160.5C 141.384,155.887 135.718,150.72 130.5,145C 129.552,144.517 128.552,144.351 127.5,144.5C 126.654,163.015 125.82,181.681 125,200.5C 132.024,208.523 139.357,216.189 147,223.5C 147.167,224.333 147.333,225.167 147.5,226C 141.06,253.593 134.227,281.093 127,308.5C 126.314,315.875 126.647,323.208 128,330.5C 135.616,337.189 142.782,344.189 149.5,351.5C 134.191,352.097 118.857,351.764 103.5,350.5C 100.421,346.676 97.5876,342.676 95,338.5C 63.1385,279.577 62.4718,219.91 93,159.5C 123.458,109.036 167.291,78.869 224.5,69C 231.811,67.8903 239.144,67.557 246.5,68C 249.041,69.8484 250.041,72.3484 249.5,75.5 Z M 250.5,352.5 C 305.5,352.5 360.5,352.5 415.5,352.5C 415.5,355.5 415.5,358.5 415.5,361.5C 360.5,361.5 305.5,361.5 250.5,361.5C 250.5,358.5 250.5,355.5 250.5,352.5 Z M 112.5,364.5 C 157.78,363.518 203.447,363.185 249.5,363.5C 249.667,384.169 249.5,404.836 249,425.5C 248.5,426 248,426.5 247.5,427C 221.881,427.296 197.547,421.963 174.5,411C 161.97,404.457 149.97,397.124 138.5,389C 129.609,380.939 120.943,372.772 112.5,364.5 Z" style="opacity: 0.993;"></path></g><g><path fill="#1e1b1c" d="M 249.5,75.5 C 250.499,167.665 250.833,259.998 250.5,352.5C 250.167,352.5 249.833,352.5 249.5,352.5C 249.5,351.833 249.167,351.5 248.5,351.5C 249.497,259.571 249.831,167.571 249.5,75.5 Z" style="opacity: 0.07;"></path></g><g><path fill="#2c2a2b" d="M 217.5,308.5 C 219.055,312.203 219.722,316.203 219.5,320.5C 219.551,323.938 219.218,326.604 218.5,328.5C 218.664,321.798 218.331,315.131 217.5,308.5 Z" style="opacity: 0.057;"></path></g></svg>